/* XPM */
static char *icon[] = {
"32 32 2 1 0 0",
"  c #E85412",
"! c None",
"!!!!!!!!!!!!!!!!!!!!!!!!!!!!!!!!",
"!!!!!!!!!!!!!!!!!!!!!!!!!!!!!!!!",
"!!!!!!!!!!!!!!!!!!!!!!!!!!!!!!!!",
"!!!!!!!!!!!!!!!!!!!!!!!!!!!!!!!!",
"!!!!!!!!!!!!!!!!!!!!!!!!!!!!!!!!",
"!!!!!!!!!!!!!!!!!!!!!!!!!!!!!!!!",
"!!!!!!!!!!!!!!!!!!!!!!!!!!!!!!!!",
"!!!!!!!!!!!!!!!!!!!!!!!!!!!!!!!!",
"!!!!!  !!!!!!! !!!!!!!  !!!!!!!!",
"!!!!!  !!!!!!! !!!!!!!  !!!!!!!!",
"!!!!!  !!!!!!   !!!!!!  !!!!!!!!",
"!!!!    !!!!!   !!!!!    !!!!!!!",
"!!!!    !!!!!   !!!!!    !!!!!!!",
"!!!  !  !!!!  !  !!!!    !!!!!!!",
"!!!  !!  !!!  !  !!!  !!  !!!!!!",
"!!   !!  !!! !!! !!!  !!  !!!!!!",
"    !!!  !!  !!!  !!  !!  !!!   ",
"    !!!!  !  !!!  !! !!!!  !    ",
"!!!!!!!!  ! !!!!! !  !!!!  !  !!",
"!!!!!!!!    !!!!!    !!!!    !!!",
"!!!!!!!!!   !!!!!   !!!!!!   !!!",
"!!!!!!!!!  !!!!!!!  !!!!!!  !!!!",
"!!!!!!!!!! !!!!!!! !!!!!!!  !!!!",
"!!!!!!!!!! !!!!!!! !!!!!!!! !!!!",
"!!!!!!!!!!!!!!!!!!!!!!!!!!!!!!!!",
"!!!!!!!!!!!!!!!!!!!!!!!!!!!!!!!!",
"!!!!!!!!!!!!!!!!!!!!!!!!!!!!!!!!",
"!!!!!!!!!!!!!!!!!!!!!!!!!!!!!!!!",
"!!!!!!!!!!!!!!!!!!!!!!!!!!!!!!!!",
"!!!!!!!!!!!!!!!!!!!!!!!!!!!!!!!!",
"!!!!!!!!!!!!!!!!!!!!!!!!!!!!!!!!",
"!!!!!!!!!!!!!!!!!!!!!!!!!!!!!!!!"
};
